<svg width="739" height="70" viewBox="0 0 739 70" fill="none" xmlns="http://www.w3.org/2000/svg">
<mask id="path-1-inside-1_1_19" fill="white">
<path d="M83 34.5276V68.0276H91.477H99.955L100.227 49.8246L100.5 31.6206L115.5 49.7666L130.5 67.9126L138.25 67.9696L146 68.0276V34.5276V1.02762H137H128V18.5276C128 28.1526 127.662 36.0226 127.25 36.0166C126.838 36.0116 120.026 28.1366 112.112 18.5166L97.725 1.02762H90.362H83V34.5276Z"/>
<path fill-rule="evenodd" clip-rule="evenodd" d="M14.25 33.3036C6.412 51.0546 0 66.1296 0 66.8026C0 67.6776 2.544 68.0276 8.894 68.0276H17.788L20.289 61.7776L22.789 55.5276H37.603H52.417L54.866 61.7776L57.315 68.0276H66.765C75.352 68.0276 76.153 67.8676 75.546 66.2776C75.178 65.3146 68.56 50.2406 60.839 32.7776L46.801 1.02762L37.651 1.02862L28.5 1.02962L14.25 33.3036ZM46 40.2216C46 39.7786 44.386 35.3916 42.414 30.4716C38.181 19.9136 37.397 18.8686 36.142 22.1146C35.629 23.4416 33.812 28.0266 32.104 32.3036C30.397 36.5806 29 40.2926 29 40.5536C29 40.8146 32.825 41.0276 37.5 41.0276C42.175 41.0276 46 40.6646 46 40.2216Z"/>
<path d="M154 8.52762V16.0276H164H174V42.0276V68.0276H183.5H193V42.0276V16.0276H203H213V8.52762V1.02762H183.5H154V8.52762Z"/>
<path d="M221 34.5276V68.0276H230H239V34.5276V1.02762H230H221V34.5276Z"/>
<path fill-rule="evenodd" clip-rule="evenodd" d="M253 34.4556V68.0276H262.5H272V59.0276V50.0276L277.25 50.0636L282.5 50.0996L288.5 59.0476L294.5 67.9956L304.734 68.0116L314.968 68.0276L307.984 57.8636C304.143 52.2736 301.017 47.4356 301.038 47.1136C301.059 46.7916 302.794 45.3406 304.895 43.8886C310.196 40.2256 313.251 33.5756 313.247 25.7036C313.243 18.3136 311.459 13.6406 306.904 9.08562C300.147 2.32862 296.937 1.56562 273.75 1.20562L253 0.882624V34.4556ZM293.968 25.6666C293.934 21.1936 292.737 19.0136 289.316 17.1906C288.114 16.5516 283.727 16.0276 279.566 16.0276H272V26.0276V36.0276L276.75 35.9836C289.344 35.8686 294.025 33.0636 293.968 25.6666Z"/>
<path d="M324 34.5276V68.0276H351H378V60.5276V53.0276H360.5H343V47.0276V41.0276H358H373V34.0276V27.0276H358H343V21.0276V15.0276H360H377V8.02762V1.02762H350.5H324V34.5276Z"/>
<path d="M407.624 1.97162C400.075 5.00362 395.322 8.79262 391.054 15.1856C381.591 29.3556 383.682 47.9096 396.047 59.4746C404.114 67.0206 408.434 68.5276 422 68.5276C432.477 68.5276 433.99 68.2866 439.012 65.8206C442.044 64.3316 445.928 61.6316 447.642 59.8206L450.76 56.5276L444.835 51.1336L438.911 45.7396L436.205 48.2616C432.017 52.1666 428.994 53.3466 423.013 53.4126C411.834 53.5356 404.516 46.0446 404.565 34.5276C404.612 23.5266 410.48 16.5876 420.766 15.3686C426.218 14.7236 433.067 17.0946 436.942 20.9696L439.086 23.1136L444.79 17.6326L450.493 12.1516L447.497 8.99662C445.848 7.26062 442.25 4.66662 439.5 3.23162C435.152 0.961624 433.066 0.581624 423.5 0.317624C414.42 0.0676241 411.649 0.356624 407.624 1.97162Z"/>
<path d="M458.176 24.2776C458.514 45.9416 458.694 47.8686 460.823 52.5276C463.733 58.8976 467.218 62.5486 473.5 65.8096C480.67 69.5316 495.005 70.1546 503.121 67.0976C509.505 64.6926 514.98 59.8556 518.258 53.7216C520.374 49.7636 520.518 48.1626 520.814 25.2776L521.129 1.02762H512.149H503.169L502.799 22.7776C502.53 38.5486 502.052 45.2796 501.06 47.2636C497.019 55.3446 484.103 55.8036 479.549 48.0276C477.685 44.8436 477.471 42.5616 477.18 22.7776L476.86 1.02762H467.337H457.813L458.176 24.2776Z"/>
<path fill-rule="evenodd" clip-rule="evenodd" d="M534 34.5276V68.0276H543.5H553V59.0276V50.0276H558.371H563.743L569.621 59.0116L575.5 67.9966L585.8 68.0116L596.101 68.0276L588.833 57.3506C584.185 50.5236 582.017 46.5216 582.819 46.2546C585.491 45.3636 590.185 40.5916 592.264 36.6516C593.899 33.5536 594.441 30.7866 594.441 25.5276C594.441 16.9336 591.854 11.3836 585.809 7.00462C578.821 1.94262 573.772 1.02762 552.818 1.02762H534V34.5276ZM575.333 28.3616C576.496 24.3076 573.942 18.3366 570.483 17.0216C569.046 16.4746 564.508 16.0276 560.399 16.0276H552.928L553.214 25.7776L553.5 35.5276L561.437 35.3326C570.432 35.1126 573.895 33.3746 575.333 28.3616Z"/>
<path d="M616.581 2.04162C607.261 5.68062 601.997 12.7966 602.004 21.7456C602.008 27.3316 604.313 31.6786 609.165 35.2516C613.267 38.2736 616.147 39.3726 627 42.0606C639.768 45.2236 642.818 48.1676 637.921 52.5986C634.91 55.3246 623.501 55.0286 615.5 52.0186C612.2 50.7776 608.935 49.3146 608.245 48.7676C607.303 48.0226 606.223 49.4646 603.921 54.5416C600.3 62.5286 600.491 62.9246 609.536 66.1666C617.068 68.8656 633.901 69.8756 640.513 68.0236C651.754 64.8766 658.367 57.2876 658.373 47.5276C658.38 37.0966 652.09 31.5556 636.121 27.9236C622.899 24.9166 620.8 23.7636 621.191 19.7216C621.456 16.9846 622.073 16.3366 625.5 15.1936C630.102 13.6586 636.535 14.1456 643.02 16.5176C650.078 19.1006 650.155 19.0666 653.125 12.0276L655.868 5.52762L653.209 4.12762C644.762 -0.319376 625.445 -1.41938 616.581 2.04162Z"/>
<path fill-rule="evenodd" clip-rule="evenodd" d="M687.268 1.92862C678.244 5.26962 670.628 12.2756 666.637 20.9056C663.635 27.3986 663.716 41.4436 666.795 48.2866C669.949 55.2966 676.98 62.2826 684.266 65.6476C689.939 68.2686 691.49 68.5276 701.5 68.5276C711.295 68.5276 713.115 68.2386 718.12 65.8926C725.991 62.2016 731.447 56.8966 735.19 49.2926C738.017 43.5516 738.4 41.7876 738.4 34.5276C738.4 27.2536 738.019 25.5086 735.163 19.7076C731.56 12.3886 725.636 6.52462 718.216 2.93362C711.481 -0.326376 694.821 -0.867377 687.268 1.92862ZM713.668 48.6926C723.657 39.5386 719.742 19.9636 707.171 16.1966C705.024 15.5536 702.195 15.0686 700.884 15.1176C686.162 15.6746 678.498 31.9616 686.518 45.6476C691.898 54.8296 705.328 56.3356 713.668 48.6926Z"/>
</mask>
<path d="M83 34.5276V68.0276H91.477H99.955L100.227 49.8246L100.5 31.6206L115.5 49.7666L130.5 67.9126L138.25 67.9696L146 68.0276V34.5276V1.02762H137H128V18.5276C128 28.1526 127.662 36.0226 127.25 36.0166C126.838 36.0116 120.026 28.1366 112.112 18.5166L97.725 1.02762H90.362H83V34.5276Z" fill="#D35D19"/>
<path fill-rule="evenodd" clip-rule="evenodd" d="M14.25 33.3036C6.412 51.0546 0 66.1296 0 66.8026C0 67.6776 2.544 68.0276 8.894 68.0276H17.788L20.289 61.7776L22.789 55.5276H37.603H52.417L54.866 61.7776L57.315 68.0276H66.765C75.352 68.0276 76.153 67.8676 75.546 66.2776C75.178 65.3146 68.56 50.2406 60.839 32.7776L46.801 1.02762L37.651 1.02862L28.5 1.02962L14.25 33.3036ZM46 40.2216C46 39.7786 44.386 35.3916 42.414 30.4716C38.181 19.9136 37.397 18.8686 36.142 22.1146C35.629 23.4416 33.812 28.0266 32.104 32.3036C30.397 36.5806 29 40.2926 29 40.5536C29 40.8146 32.825 41.0276 37.5 41.0276C42.175 41.0276 46 40.6646 46 40.2216Z" fill="#D35D19"/>
<path d="M154 8.52762V16.0276H164H174V42.0276V68.0276H183.5H193V42.0276V16.0276H203H213V8.52762V1.02762H183.5H154V8.52762Z" fill="#D35D19"/>
<path d="M221 34.5276V68.0276H230H239V34.5276V1.02762H230H221V34.5276Z" fill="#D35D19"/>
<path fill-rule="evenodd" clip-rule="evenodd" d="M253 34.4556V68.0276H262.5H272V59.0276V50.0276L277.25 50.0636L282.5 50.0996L288.5 59.0476L294.5 67.9956L304.734 68.0116L314.968 68.0276L307.984 57.8636C304.143 52.2736 301.017 47.4356 301.038 47.1136C301.059 46.7916 302.794 45.3406 304.895 43.8886C310.196 40.2256 313.251 33.5756 313.247 25.7036C313.243 18.3136 311.459 13.6406 306.904 9.08562C300.147 2.32862 296.937 1.56562 273.75 1.20562L253 0.882624V34.4556ZM293.968 25.6666C293.934 21.1936 292.737 19.0136 289.316 17.1906C288.114 16.5516 283.727 16.0276 279.566 16.0276H272V26.0276V36.0276L276.75 35.9836C289.344 35.8686 294.025 33.0636 293.968 25.6666Z" fill="black"/>
<path d="M324 34.5276V68.0276H351H378V60.5276V53.0276H360.5H343V47.0276V41.0276H358H373V34.0276V27.0276H358H343V21.0276V15.0276H360H377V8.02762V1.02762H350.5H324V34.5276Z" fill="black"/>
<path d="M407.624 1.97162C400.075 5.00362 395.322 8.79262 391.054 15.1856C381.591 29.3556 383.682 47.9096 396.047 59.4746C404.114 67.0206 408.434 68.5276 422 68.5276C432.477 68.5276 433.99 68.2866 439.012 65.8206C442.044 64.3316 445.928 61.6316 447.642 59.8206L450.76 56.5276L444.835 51.1336L438.911 45.7396L436.205 48.2616C432.017 52.1666 428.994 53.3466 423.013 53.4126C411.834 53.5356 404.516 46.0446 404.565 34.5276C404.612 23.5266 410.48 16.5876 420.766 15.3686C426.218 14.7236 433.067 17.0946 436.942 20.9696L439.086 23.1136L444.79 17.6326L450.493 12.1516L447.497 8.99662C445.848 7.26062 442.25 4.66662 439.5 3.23162C435.152 0.961624 433.066 0.581624 423.5 0.317624C414.42 0.0676241 411.649 0.356624 407.624 1.97162Z" fill="black"/>
<path d="M458.176 24.2776C458.514 45.9416 458.694 47.8686 460.823 52.5276C463.733 58.8976 467.218 62.5486 473.5 65.8096C480.67 69.5316 495.005 70.1546 503.121 67.0976C509.505 64.6926 514.98 59.8556 518.258 53.7216C520.374 49.7636 520.518 48.1626 520.814 25.2776L521.129 1.02762H512.149H503.169L502.799 22.7776C502.53 38.5486 502.052 45.2796 501.06 47.2636C497.019 55.3446 484.103 55.8036 479.549 48.0276C477.685 44.8436 477.471 42.5616 477.18 22.7776L476.86 1.02762H467.337H457.813L458.176 24.2776Z" fill="black"/>
<path fill-rule="evenodd" clip-rule="evenodd" d="M534 34.5276V68.0276H543.5H553V59.0276V50.0276H558.371H563.743L569.621 59.0116L575.5 67.9966L585.8 68.0116L596.101 68.0276L588.833 57.3506C584.185 50.5236 582.017 46.5216 582.819 46.2546C585.491 45.3636 590.185 40.5916 592.264 36.6516C593.899 33.5536 594.441 30.7866 594.441 25.5276C594.441 16.9336 591.854 11.3836 585.809 7.00462C578.821 1.94262 573.772 1.02762 552.818 1.02762H534V34.5276ZM575.333 28.3616C576.496 24.3076 573.942 18.3366 570.483 17.0216C569.046 16.4746 564.508 16.0276 560.399 16.0276H552.928L553.214 25.7776L553.5 35.5276L561.437 35.3326C570.432 35.1126 573.895 33.3746 575.333 28.3616Z" fill="black"/>
<path d="M616.581 2.04162C607.261 5.68062 601.997 12.7966 602.004 21.7456C602.008 27.3316 604.313 31.6786 609.165 35.2516C613.267 38.2736 616.147 39.3726 627 42.0606C639.768 45.2236 642.818 48.1676 637.921 52.5986C634.91 55.3246 623.501 55.0286 615.5 52.0186C612.2 50.7776 608.935 49.3146 608.245 48.7676C607.303 48.0226 606.223 49.4646 603.921 54.5416C600.3 62.5286 600.491 62.9246 609.536 66.1666C617.068 68.8656 633.901 69.8756 640.513 68.0236C651.754 64.8766 658.367 57.2876 658.373 47.5276C658.38 37.0966 652.09 31.5556 636.121 27.9236C622.899 24.9166 620.8 23.7636 621.191 19.7216C621.456 16.9846 622.073 16.3366 625.5 15.1936C630.102 13.6586 636.535 14.1456 643.02 16.5176C650.078 19.1006 650.155 19.0666 653.125 12.0276L655.868 5.52762L653.209 4.12762C644.762 -0.319376 625.445 -1.41938 616.581 2.04162Z" fill="black"/>
<path fill-rule="evenodd" clip-rule="evenodd" d="M687.268 1.92862C678.244 5.26962 670.628 12.2756 666.637 20.9056C663.635 27.3986 663.716 41.4436 666.795 48.2866C669.949 55.2966 676.98 62.2826 684.266 65.6476C689.939 68.2686 691.49 68.5276 701.5 68.5276C711.295 68.5276 713.115 68.2386 718.12 65.8926C725.991 62.2016 731.447 56.8966 735.19 49.2926C738.017 43.5516 738.4 41.7876 738.4 34.5276C738.4 27.2536 738.019 25.5086 735.163 19.7076C731.56 12.3886 725.636 6.52462 718.216 2.93362C711.481 -0.326376 694.821 -0.867377 687.268 1.92862ZM713.668 48.6926C723.657 39.5386 719.742 19.9636 707.171 16.1966C705.024 15.5536 702.195 15.0686 700.884 15.1176C686.162 15.6746 678.498 31.9616 686.518 45.6476C691.898 54.8296 705.328 56.3356 713.668 48.6926Z" fill="black"/>
<path d="M83 34.5276V68.0276H91.477H99.955L100.227 49.8246L100.5 31.6206L115.5 49.7666L130.5 67.9126L138.25 67.9696L146 68.0276V34.5276V1.02762H137H128V18.5276C128 28.1526 127.662 36.0226 127.25 36.0166C126.838 36.0116 120.026 28.1366 112.112 18.5166L97.725 1.02762H90.362H83V34.5276Z" stroke="black" stroke-width="6" mask="url(#path-1-inside-1_1_19)"/>
<path fill-rule="evenodd" clip-rule="evenodd" d="M14.25 33.3036C6.412 51.0546 0 66.1296 0 66.8026C0 67.6776 2.544 68.0276 8.894 68.0276H17.788L20.289 61.7776L22.789 55.5276H37.603H52.417L54.866 61.7776L57.315 68.0276H66.765C75.352 68.0276 76.153 67.8676 75.546 66.2776C75.178 65.3146 68.56 50.2406 60.839 32.7776L46.801 1.02762L37.651 1.02862L28.5 1.02962L14.25 33.3036ZM46 40.2216C46 39.7786 44.386 35.3916 42.414 30.4716C38.181 19.9136 37.397 18.8686 36.142 22.1146C35.629 23.4416 33.812 28.0266 32.104 32.3036C30.397 36.5806 29 40.2926 29 40.5536C29 40.8146 32.825 41.0276 37.5 41.0276C42.175 41.0276 46 40.6646 46 40.2216Z" stroke="black" stroke-width="6" mask="url(#path-1-inside-1_1_19)"/>
<path d="M154 8.52762V16.0276H164H174V42.0276V68.0276H183.5H193V42.0276V16.0276H203H213V8.52762V1.02762H183.5H154V8.52762Z" stroke="black" stroke-width="6" mask="url(#path-1-inside-1_1_19)"/>
<path d="M221 34.5276V68.0276H230H239V34.5276V1.02762H230H221V34.5276Z" stroke="black" stroke-width="6" mask="url(#path-1-inside-1_1_19)"/>
<path fill-rule="evenodd" clip-rule="evenodd" d="M253 34.4556V68.0276H262.5H272V59.0276V50.0276L277.25 50.0636L282.5 50.0996L288.5 59.0476L294.5 67.9956L304.734 68.0116L314.968 68.0276L307.984 57.8636C304.143 52.2736 301.017 47.4356 301.038 47.1136C301.059 46.7916 302.794 45.3406 304.895 43.8886C310.196 40.2256 313.251 33.5756 313.247 25.7036C313.243 18.3136 311.459 13.6406 306.904 9.08562C300.147 2.32862 296.937 1.56562 273.75 1.20562L253 0.882624V34.4556ZM293.968 25.6666C293.934 21.1936 292.737 19.0136 289.316 17.1906C288.114 16.5516 283.727 16.0276 279.566 16.0276H272V26.0276V36.0276L276.75 35.9836C289.344 35.8686 294.025 33.0636 293.968 25.6666Z" stroke="black" stroke-width="6" mask="url(#path-1-inside-1_1_19)"/>
<path d="M324 34.5276V68.0276H351H378V60.5276V53.0276H360.5H343V47.0276V41.0276H358H373V34.0276V27.0276H358H343V21.0276V15.0276H360H377V8.02762V1.02762H350.5H324V34.5276Z" stroke="black" stroke-width="6" mask="url(#path-1-inside-1_1_19)"/>
<path d="M407.624 1.97162C400.075 5.00362 395.322 8.79262 391.054 15.1856C381.591 29.3556 383.682 47.9096 396.047 59.4746C404.114 67.0206 408.434 68.5276 422 68.5276C432.477 68.5276 433.99 68.2866 439.012 65.8206C442.044 64.3316 445.928 61.6316 447.642 59.8206L450.76 56.5276L444.835 51.1336L438.911 45.7396L436.205 48.2616C432.017 52.1666 428.994 53.3466 423.013 53.4126C411.834 53.5356 404.516 46.0446 404.565 34.5276C404.612 23.5266 410.48 16.5876 420.766 15.3686C426.218 14.7236 433.067 17.0946 436.942 20.9696L439.086 23.1136L444.79 17.6326L450.493 12.1516L447.497 8.99662C445.848 7.26062 442.25 4.66662 439.5 3.23162C435.152 0.961624 433.066 0.581624 423.5 0.317624C414.42 0.0676241 411.649 0.356624 407.624 1.97162Z" stroke="black" stroke-width="6" mask="url(#path-1-inside-1_1_19)"/>
<path d="M458.176 24.2776C458.514 45.9416 458.694 47.8686 460.823 52.5276C463.733 58.8976 467.218 62.5486 473.5 65.8096C480.67 69.5316 495.005 70.1546 503.121 67.0976C509.505 64.6926 514.98 59.8556 518.258 53.7216C520.374 49.7636 520.518 48.1626 520.814 25.2776L521.129 1.02762H512.149H503.169L502.799 22.7776C502.53 38.5486 502.052 45.2796 501.06 47.2636C497.019 55.3446 484.103 55.8036 479.549 48.0276C477.685 44.8436 477.471 42.5616 477.18 22.7776L476.86 1.02762H467.337H457.813L458.176 24.2776Z" stroke="black" stroke-width="6" mask="url(#path-1-inside-1_1_19)"/>
<path fill-rule="evenodd" clip-rule="evenodd" d="M534 34.5276V68.0276H543.5H553V59.0276V50.0276H558.371H563.743L569.621 59.0116L575.5 67.9966L585.8 68.0116L596.101 68.0276L588.833 57.3506C584.185 50.5236 582.017 46.5216 582.819 46.2546C585.491 45.3636 590.185 40.5916 592.264 36.6516C593.899 33.5536 594.441 30.7866 594.441 25.5276C594.441 16.9336 591.854 11.3836 585.809 7.00462C578.821 1.94262 573.772 1.02762 552.818 1.02762H534V34.5276ZM575.333 28.3616C576.496 24.3076 573.942 18.3366 570.483 17.0216C569.046 16.4746 564.508 16.0276 560.399 16.0276H552.928L553.214 25.7776L553.5 35.5276L561.437 35.3326C570.432 35.1126 573.895 33.3746 575.333 28.3616Z" stroke="black" stroke-width="6" mask="url(#path-1-inside-1_1_19)"/>
<path d="M616.581 2.04162C607.261 5.68062 601.997 12.7966 602.004 21.7456C602.008 27.3316 604.313 31.6786 609.165 35.2516C613.267 38.2736 616.147 39.3726 627 42.0606C639.768 45.2236 642.818 48.1676 637.921 52.5986C634.91 55.3246 623.501 55.0286 615.5 52.0186C612.2 50.7776 608.935 49.3146 608.245 48.7676C607.303 48.0226 606.223 49.4646 603.921 54.5416C600.3 62.5286 600.491 62.9246 609.536 66.1666C617.068 68.8656 633.901 69.8756 640.513 68.0236C651.754 64.8766 658.367 57.2876 658.373 47.5276C658.38 37.0966 652.09 31.5556 636.121 27.9236C622.899 24.9166 620.8 23.7636 621.191 19.7216C621.456 16.9846 622.073 16.3366 625.5 15.1936C630.102 13.6586 636.535 14.1456 643.02 16.5176C650.078 19.1006 650.155 19.0666 653.125 12.0276L655.868 5.52762L653.209 4.12762C644.762 -0.319376 625.445 -1.41938 616.581 2.04162Z" stroke="black" stroke-width="6" mask="url(#path-1-inside-1_1_19)"/>
<path fill-rule="evenodd" clip-rule="evenodd" d="M687.268 1.92862C678.244 5.26962 670.628 12.2756 666.637 20.9056C663.635 27.3986 663.716 41.4436 666.795 48.2866C669.949 55.2966 676.98 62.2826 684.266 65.6476C689.939 68.2686 691.49 68.5276 701.5 68.5276C711.295 68.5276 713.115 68.2386 718.12 65.8926C725.991 62.2016 731.447 56.8966 735.19 49.2926C738.017 43.5516 738.4 41.7876 738.4 34.5276C738.4 27.2536 738.019 25.5086 735.163 19.7076C731.56 12.3886 725.636 6.52462 718.216 2.93362C711.481 -0.326376 694.821 -0.867377 687.268 1.92862ZM713.668 48.6926C723.657 39.5386 719.742 19.9636 707.171 16.1966C705.024 15.5536 702.195 15.0686 700.884 15.1176C686.162 15.6746 678.498 31.9616 686.518 45.6476C691.898 54.8296 705.328 56.3356 713.668 48.6926Z" stroke="black" stroke-width="6" mask="url(#path-1-inside-1_1_19)"/>
</svg>
