<svg width="32" height="32" viewBox="0 0 32 32" fill="none" xmlns="http://www.w3.org/2000/svg">
<circle cx="16" cy="16" r="14.5" fill="url(#paint0_linear_102_19)" stroke="#EFA73B" stroke-width="3"/>
<path d="M12.0909 13.408C12.1443 12.3413 12.5176 11.52 13.2109 10.944C13.9149 10.3573 14.8376 10.064 15.9789 10.064C16.7576 10.064 17.4243 10.2027 17.9789 10.48C18.5336 10.7467 18.9496 11.1147 19.2269 11.584C19.5149 12.0427 19.6589 12.5653 19.6589 13.152C19.6589 13.824 19.4829 14.3947 19.1309 14.864C18.7896 15.3227 18.3789 15.632 17.8989 15.792V15.856C18.5176 16.048 18.9976 16.3893 19.3389 16.88C19.6909 17.3707 19.8669 18 19.8669 18.768C19.8669 19.408 19.7176 19.9787 19.4189 20.48C19.1309 20.9813 18.6989 21.376 18.1229 21.664C17.5576 21.9413 16.8749 22.08 16.0749 22.08C14.8696 22.08 13.8883 21.776 13.1309 21.168C12.3736 20.56 11.9736 19.664 11.9309 18.48H14.1069C14.1283 19.0027 14.3043 19.424 14.6349 19.744C14.9763 20.0533 15.4403 20.208 16.0269 20.208C16.5709 20.208 16.9869 20.0587 17.2749 19.76C17.5736 19.4507 17.7229 19.056 17.7229 18.576C17.7229 17.936 17.5203 17.4773 17.1149 17.2C16.7096 16.9227 16.0803 16.784 15.2269 16.784H14.7629V14.944H15.2269C16.7416 14.944 17.4989 14.4373 17.4989 13.424C17.4989 12.9653 17.3603 12.608 17.0829 12.352C16.8163 12.096 16.4269 11.968 15.9149 11.968C15.4136 11.968 15.0243 12.1067 14.7469 12.384C14.4803 12.6507 14.3256 12.992 14.2829 13.408H12.0909Z" fill="#FFC02A"/>
<defs>
<linearGradient id="paint0_linear_102_19" x1="0" y1="0" x2="32" y2="32" gradientUnits="userSpaceOnUse">
<stop stop-color="#FF8000"/>
<stop offset="1" stop-color="#CD8032"/>
</linearGradient>
</defs>
</svg>
