<svg width="128" height="128" viewBox="0 0 128 128" fill="none" xmlns="http://www.w3.org/2000/svg">
<circle cx="64" cy="64" r="61.5" fill="url(#paint0_linear_102_19)" stroke="#EFA73B" stroke-width="5"/>
<path d="M47.8751 53.558C48.0951 49.158 49.6351 45.77 52.4951 43.394C55.3991 40.974 59.2051 39.764 63.9131 39.764C67.1251 39.764 69.8751 40.336 72.1631 41.48C74.4511 42.58 76.1671 44.098 77.3111 46.034C78.4991 47.926 79.0931 50.082 79.0931 52.502C79.0931 55.274 78.3671 57.628 76.9151 59.564C75.5071 61.456 73.8131 62.732 71.8331 63.392V63.656C74.3851 64.448 76.3651 65.856 77.7731 67.88C79.2251 69.904 79.9511 72.5 79.9511 75.668C79.9511 78.308 79.3351 80.662 78.1031 82.73C76.9151 84.798 75.1331 86.426 72.7571 87.614C70.4251 88.758 67.6091 89.33 64.3091 89.33C59.3371 89.33 55.2891 88.076 52.1651 85.568C49.0411 83.06 47.3911 79.364 47.2151 74.48H56.1911C56.2791 76.636 57.0051 78.374 58.3691 79.694C59.7771 80.97 61.6911 81.608 64.1111 81.608C66.3551 81.608 68.0711 80.992 69.2591 79.76C70.4911 78.484 71.1071 76.856 71.1071 74.876C71.1071 72.236 70.2711 70.344 68.5991 69.2C66.9271 68.056 64.3311 67.484 60.8111 67.484H58.8971V59.894H60.8111C67.0591 59.894 70.1831 57.804 70.1831 53.624C70.1831 51.732 69.6111 50.258 68.4671 49.202C67.3671 48.146 65.7611 47.618 63.6491 47.618C61.5811 47.618 59.9751 48.19 58.8311 49.334C57.7311 50.434 57.0931 51.842 56.9171 53.558H47.8751Z" fill="#FFC02A"/>
<defs>
<linearGradient id="paint0_linear_102_19" x1="0" y1="0" x2="128" y2="128" gradientUnits="userSpaceOnUse">
<stop stop-color="#FF8000"/>
<stop offset="1" stop-color="#CD8032"/>
</linearGradient>
</defs>
</svg>
