<svg width="128" height="128" viewBox="0 0 128 128" fill="none" xmlns="http://www.w3.org/2000/svg">
<circle cx="64" cy="64" r="61.5" fill="url(#paint0_linear_102_15)" stroke="#939393" stroke-width="5"/>
<path d="M51.4528 78.572C55.6768 75.052 59.0428 72.126 61.5508 69.794C64.0588 67.418 66.1488 64.954 67.8208 62.402C69.4928 59.85 70.3288 57.342 70.3288 54.878C70.3288 52.634 69.8008 50.874 68.7448 49.598C67.6888 48.322 66.0608 47.684 63.8608 47.684C61.6608 47.684 59.9668 48.432 58.7788 49.928C57.5908 51.38 56.9748 53.382 56.9308 55.934H47.9548C48.1308 50.654 49.6928 46.65 52.6408 43.922C55.6328 41.194 59.4168 39.83 63.9928 39.83C69.0088 39.83 72.8588 41.172 75.5428 43.856C78.2268 46.496 79.5688 49.994 79.5688 54.35C79.5688 57.782 78.6448 61.06 76.7968 64.184C74.9488 67.308 72.8368 70.036 70.4608 72.368C68.0848 74.656 64.9828 77.428 61.1548 80.684H80.6248V88.34H48.0208V81.476L51.4528 78.572Z" fill="#7E7E7E"/>
<defs>
<linearGradient id="paint0_linear_102_15" x1="0" y1="0" x2="128" y2="128" gradientUnits="userSpaceOnUse">
<stop stop-color="white"/>
<stop offset="1" stop-color="#C0C0C0"/>
</linearGradient>
</defs>
</svg>
