<svg width="32" height="32" viewBox="0 0 32 32" fill="none" xmlns="http://www.w3.org/2000/svg">
<circle cx="16" cy="16" r="14.5" fill="url(#paint0_linear_102_15)" stroke="#939393" stroke-width="3"/>
<path d="M12.9583 19.472C13.9823 18.6187 14.7983 17.9093 15.4062 17.344C16.0143 16.768 16.5209 16.1707 16.9263 15.552C17.3316 14.9333 17.5343 14.3253 17.5343 13.728C17.5343 13.184 17.4063 12.7573 17.1503 12.448C16.8943 12.1387 16.4996 11.984 15.9663 11.984C15.4329 11.984 15.0223 12.1653 14.7343 12.528C14.4463 12.88 14.2969 13.3653 14.2863 13.984H12.1103C12.1529 12.704 12.5316 11.7333 13.2463 11.072C13.9716 10.4107 14.8889 10.08 15.9983 10.08C17.2143 10.08 18.1476 10.4053 18.7983 11.056C19.4489 11.696 19.7743 12.544 19.7743 13.6C19.7743 14.432 19.5503 15.2267 19.1023 15.984C18.6543 16.7413 18.1423 17.4027 17.5663 17.968C16.9903 18.5227 16.2383 19.1947 15.3103 19.984H20.0303V21.84H12.1263V20.176L12.9583 19.472Z" fill="#7E7E7E"/>
<defs>
<linearGradient id="paint0_linear_102_15" x1="0" y1="0" x2="32" y2="32" gradientUnits="userSpaceOnUse">
<stop stop-color="white"/>
<stop offset="1" stop-color="#C0C0C0"/>
</linearGradient>
</defs>
</svg>
